<?xml version="1.0" encoding="UTF-8" standalone="no"?>
<!-- Created with Inkscape (http://www.inkscape.org/) -->

<svg
   xmlns:dc="http://purl.org/dc/elements/1.1/"
   xmlns:cc="http://creativecommons.org/ns#"
   xmlns:rdf="http://www.w3.org/1999/02/22-rdf-syntax-ns#"
   xmlns:svg="http://www.w3.org/2000/svg"
   xmlns="http://www.w3.org/2000/svg"
   xmlns:sodipodi="http://sodipodi.sourceforge.net/DTD/sodipodi-0.dtd"
   xmlns:inkscape="http://www.inkscape.org/namespaces/inkscape"
   width="48pt"
   height="48pt"
   viewBox="0 0 16.933334 16.933333"
   version="1.1"
   id="svg979"
   inkscape:version="0.92.4 (5da689c313, 2019-01-14)"
   sodipodi:docname="4 - Girl Hoodie.svg"
   inkscape:export-filename="E:\TR Design Studio Creative\Project Design\TR Creative Design\Icon Design\Project Hiring\Icon Icons\Project - 001\002 - Beauty And Fashion\Send\3 - Flat\4 - Girl Hoodie.png"
   inkscape:export-xdpi="768"
   inkscape:export-ydpi="768">
  <defs
     id="defs973" />
  <sodipodi:namedview
     id="base"
     pagecolor="#ffffff"
     bordercolor="#666666"
     borderopacity="1.0"
     inkscape:pageopacity="0.0"
     inkscape:pageshadow="2"
     inkscape:zoom="8.546875"
     inkscape:cx="32"
     inkscape:cy="32"
     inkscape:document-units="pt"
     inkscape:current-layer="layer1"
     showgrid="false"
     units="pt"
     inkscape:window-width="1366"
     inkscape:window-height="716"
     inkscape:window-x="-8"
     inkscape:window-y="-8"
     inkscape:window-maximized="1"
     inkscape:snap-bbox="true"
     inkscape:bbox-nodes="true"
     inkscape:snap-nodes="false"
     showguides="false">
    <inkscape:grid
       type="xygrid"
       id="grid1526" />
    <sodipodi:guide
       position="0.97013909,15.963209"
       orientation="56.666615,0"
       id="guide1528"
       inkscape:locked="false" />
    <sodipodi:guide
       position="0.97013909,0.97016731"
       orientation="0,56.666667"
       id="guide1530"
       inkscape:locked="false" />
    <sodipodi:guide
       position="15.963195,0.97016731"
       orientation="-56.666615,0"
       id="guide1532"
       inkscape:locked="false" />
    <sodipodi:guide
       position="15.963195,15.963209"
       orientation="0,-56.666667"
       id="guide1534"
       inkscape:locked="false" />
  </sodipodi:namedview>
  <metadata
     id="metadata976">
    <rdf:RDF>
      <cc:Work
         rdf:about="">
        <dc:format>image/svg+xml</dc:format>
        <dc:type
           rdf:resource="http://purl.org/dc/dcmitype/StillImage" />
        <dc:title></dc:title>
      </cc:Work>
    </rdf:RDF>
  </metadata>
  <g
     inkscape:label="Layer 1"
     inkscape:groupmode="layer"
     id="layer1"
     transform="translate(0,-280.06668)">
    <g
       transform="matrix(1.2317739,0,0,1.2317739,-26.470425,-42.36397)"
       style="display:inline;stroke-width:0.81183726"
       id="g2139">
      <path
         inkscape:export-ydpi="700.72992"
         inkscape:export-xdpi="700.72992"
         inkscape:connector-curvature="0"
         id="path1614"
         d="m 22.753906,271.39062 a 0.26460996,0.26460996 0 0 0 -0.25,0.22461 l -0.154297,1.00977 a 0.26460996,0.26460996 0 0 0 0.220703,0.30078 l 1.21875,0.18945 a 0.26460996,0.26460996 0 0 0 0.296876,-0.19726 l 0.24414,-0.98633 a 0.26460996,0.26460996 0 0 0 -0.214844,-0.32422 l -1.308593,-0.21289 a 0.26460996,0.26460996 0 0 0 -0.05273,-0.004 z"
         style="color:#000000;font-style:normal;font-variant:normal;font-weight:normal;font-stretch:normal;font-size:medium;line-height:normal;font-family:sans-serif;font-variant-ligatures:normal;font-variant-position:normal;font-variant-caps:normal;font-variant-numeric:normal;font-variant-alternates:normal;font-feature-settings:normal;text-indent:0;text-align:start;text-decoration:none;text-decoration-line:none;text-decoration-style:solid;text-decoration-color:#000000;letter-spacing:normal;word-spacing:normal;text-transform:none;writing-mode:lr-tb;direction:ltr;text-orientation:mixed;dominant-baseline:auto;baseline-shift:baseline;text-anchor:start;white-space:normal;shape-padding:0;clip-rule:nonzero;display:inline;overflow:visible;visibility:visible;opacity:1;isolation:auto;mix-blend-mode:normal;color-interpolation:sRGB;color-interpolation-filters:linearRGB;solid-color:#000000;solid-opacity:1;vector-effect:none;fill:#717171;fill-opacity:1;fill-rule:nonzero;stroke:none;stroke-width:0.4295975;stroke-linecap:round;stroke-linejoin:round;stroke-miterlimit:4;stroke-dasharray:none;stroke-dashoffset:0;stroke-opacity:1;paint-order:markers fill stroke;color-rendering:auto;image-rendering:auto;shape-rendering:auto;text-rendering:auto;enable-background:accumulate" />
      <path
         inkscape:export-ydpi="700.72992"
         inkscape:export-xdpi="700.72992"
         style="fill:#515151;fill-opacity:1;stroke:none;stroke-width:0.4295972;stroke-linecap:round;stroke-linejoin:round;stroke-miterlimit:1.5;stroke-opacity:1;paint-order:markers fill stroke"
         d="m 22.759637,271.39019 c 0.0084,-2.2e-4 0.01691,-5e-5 0.02532,5.3e-4 0.0073,0.001 0.01453,0.002 0.0217,0.004 l 1.308447,0.21291 c 0.152487,0.0246 0.251614,0.17396 0.214974,0.32401 l -0.174837,0.70627 -1.761715,-0.30041 0.110308,-0.72212 c 0.0191,-0.12734 0.127069,-0.22245 0.255796,-0.22531 z"
         id="path1733"
         inkscape:connector-curvature="0"
         sodipodi:nodetypes="cccccccccc" />
      <path
         inkscape:export-ydpi="700.72992"
         inkscape:export-xdpi="700.72992"
         inkscape:connector-curvature="0"
         id="path1662"
         d="m 25.716797,273.13281 a 0.26460996,0.26460996 0 0 0 -0.263672,0.26367 v 1.0586 a 0.26460996,0.26460996 0 0 0 0.263672,0.26562 h 5.556641 a 0.26460996,0.26460996 0 0 0 0.265624,-0.26562 v -1.0586 a 0.26460996,0.26460996 0 0 0 -0.265624,-0.26367 z"
         style="color:#000000;font-style:normal;font-variant:normal;font-weight:normal;font-stretch:normal;font-size:medium;line-height:normal;font-family:sans-serif;font-variant-ligatures:normal;font-variant-position:normal;font-variant-caps:normal;font-variant-numeric:normal;font-variant-alternates:normal;font-feature-settings:normal;text-indent:0;text-align:start;text-decoration:none;text-decoration-line:none;text-decoration-style:solid;text-decoration-color:#000000;letter-spacing:normal;word-spacing:normal;text-transform:none;writing-mode:lr-tb;direction:ltr;text-orientation:mixed;dominant-baseline:auto;baseline-shift:baseline;text-anchor:start;white-space:normal;shape-padding:0;clip-rule:nonzero;display:inline;overflow:visible;visibility:visible;opacity:1;isolation:auto;mix-blend-mode:normal;color-interpolation:sRGB;color-interpolation-filters:linearRGB;solid-color:#000000;solid-opacity:1;vector-effect:none;fill:#717171;fill-opacity:1;fill-rule:nonzero;stroke:none;stroke-width:0.4295975;stroke-linecap:round;stroke-linejoin:round;stroke-miterlimit:4;stroke-dasharray:none;stroke-dashoffset:0;stroke-opacity:1;paint-order:markers fill stroke;color-rendering:auto;image-rendering:auto;shape-rendering:auto;text-rendering:auto;enable-background:accumulate" />
      <path
         inkscape:export-ydpi="700.72992"
         inkscape:export-xdpi="700.72992"
         inkscape:connector-curvature="0"
         id="path1656"
         d="m 28.363281,262.54883 c -1.902479,0 -3.029297,0.55859 -3.029297,0.55859 a 0.26460996,0.26460996 0 0 0 -0.06836,0.42383 l 2.910156,2.90234 a 0.26460996,0.26460996 0 0 0 0.375,0 l 2.910157,-2.90234 a 0.26460996,0.26460996 0 0 0 -0.06836,-0.42383 c 0,0 -1.126818,-0.55859 -3.029296,-0.55859 z"
         style="color:#000000;font-style:normal;font-variant:normal;font-weight:normal;font-stretch:normal;font-size:medium;line-height:normal;font-family:sans-serif;font-variant-ligatures:normal;font-variant-position:normal;font-variant-caps:normal;font-variant-numeric:normal;font-variant-alternates:normal;font-feature-settings:normal;text-indent:0;text-align:start;text-decoration:none;text-decoration-line:none;text-decoration-style:solid;text-decoration-color:#000000;letter-spacing:normal;word-spacing:normal;text-transform:none;writing-mode:lr-tb;direction:ltr;text-orientation:mixed;dominant-baseline:auto;baseline-shift:baseline;text-anchor:start;white-space:normal;shape-padding:0;clip-rule:nonzero;display:inline;overflow:visible;visibility:visible;opacity:1;isolation:auto;mix-blend-mode:normal;color-interpolation:sRGB;color-interpolation-filters:linearRGB;solid-color:#000000;solid-opacity:1;vector-effect:none;fill:#bd6e38;fill-opacity:1;fill-rule:nonzero;stroke:none;stroke-width:0.4295975;stroke-linecap:round;stroke-linejoin:round;stroke-miterlimit:4;stroke-dasharray:none;stroke-dashoffset:0;stroke-opacity:1;paint-order:markers fill stroke;color-rendering:auto;image-rendering:auto;shape-rendering:auto;text-rendering:auto;enable-background:accumulate" />
      <path
         inkscape:export-ydpi="700.72992"
         inkscape:export-xdpi="700.72992"
         inkscape:connector-curvature="0"
         id="path1742"
         d="m 28.363281,262.54883 c -1.902478,0 -3.029273,0.55863 -3.029273,0.55863 a 0.26460995,0.26460995 0 0 0 -0.06821,0.42374 l 0.119888,0.11937 c 0.268013,-0.025 0.549929,-0.0434 0.860931,-0.0434 1.902478,0 3.029272,0.55862 3.029272,0.55862 a 0.26460995,0.26460995 0 0 1 0.06873,0.42375 l -1.50895,1.50481 0.340029,0.339 a 0.26460995,0.26460995 0 0 0 0.375172,0 l 2.910416,-2.90215 a 0.26460995,0.26460995 0 0 0 -0.06873,-0.42374 c 0,0 -1.126794,-0.55863 -3.029273,-0.55863 z"
         style="color:#000000;font-style:normal;font-variant:normal;font-weight:normal;font-stretch:normal;font-size:medium;line-height:normal;font-family:sans-serif;font-variant-ligatures:normal;font-variant-position:normal;font-variant-caps:normal;font-variant-numeric:normal;font-variant-alternates:normal;font-feature-settings:normal;text-indent:0;text-align:start;text-decoration:none;text-decoration-line:none;text-decoration-style:solid;text-decoration-color:#000000;letter-spacing:normal;word-spacing:normal;text-transform:none;writing-mode:lr-tb;direction:ltr;text-orientation:mixed;dominant-baseline:auto;baseline-shift:baseline;text-anchor:start;white-space:normal;shape-padding:0;clip-rule:nonzero;display:inline;overflow:visible;visibility:visible;opacity:1;isolation:auto;mix-blend-mode:normal;color-interpolation:sRGB;color-interpolation-filters:linearRGB;solid-color:#000000;solid-opacity:1;vector-effect:none;fill:#87491f;fill-opacity:1;fill-rule:nonzero;stroke:none;stroke-width:0.4295975;stroke-linecap:round;stroke-linejoin:round;stroke-miterlimit:4;stroke-dasharray:none;stroke-dashoffset:0;stroke-opacity:1;paint-order:markers fill stroke;color-rendering:auto;image-rendering:auto;shape-rendering:auto;text-rendering:auto;enable-background:accumulate" />
      <path
         inkscape:export-ydpi="700.72992"
         inkscape:export-xdpi="700.72992"
         inkscape:connector-curvature="0"
         id="path1621"
         d="m 33.941406,271.39062 a 0.26460996,0.26460996 0 0 0 -0.02148,0.004 l -1.308594,0.21289 a 0.26460996,0.26460996 0 0 0 -0.214844,0.32422 l 0.244141,0.98633 a 0.26460996,0.26460996 0 0 0 0.296875,0.19726 l 1.21875,-0.18945 a 0.26460996,0.26460996 0 0 0 0.220703,-0.30078 l -0.154297,-1.00977 a 0.26460996,0.26460996 0 0 0 -0.28125,-0.22461 z"
         style="color:#000000;font-style:normal;font-variant:normal;font-weight:normal;font-stretch:normal;font-size:medium;line-height:normal;font-family:sans-serif;font-variant-ligatures:normal;font-variant-position:normal;font-variant-caps:normal;font-variant-numeric:normal;font-variant-alternates:normal;font-feature-settings:normal;text-indent:0;text-align:start;text-decoration:none;text-decoration-line:none;text-decoration-style:solid;text-decoration-color:#000000;letter-spacing:normal;word-spacing:normal;text-transform:none;writing-mode:lr-tb;direction:ltr;text-orientation:mixed;dominant-baseline:auto;baseline-shift:baseline;text-anchor:start;white-space:normal;shape-padding:0;clip-rule:nonzero;display:inline;overflow:visible;visibility:visible;opacity:1;isolation:auto;mix-blend-mode:normal;color-interpolation:sRGB;color-interpolation-filters:linearRGB;solid-color:#000000;solid-opacity:1;vector-effect:none;fill:#717171;fill-opacity:1;fill-rule:nonzero;stroke:none;stroke-width:0.4295975;stroke-linecap:round;stroke-linejoin:round;stroke-miterlimit:4;stroke-dasharray:none;stroke-dashoffset:0;stroke-opacity:1;paint-order:markers fill stroke;color-rendering:auto;image-rendering:auto;shape-rendering:auto;text-rendering:auto;enable-background:accumulate" />
      <path
         inkscape:export-ydpi="700.72992"
         inkscape:export-xdpi="700.72992"
         sodipodi:nodetypes="ccccccccccccc"
         inkscape:connector-curvature="0"
         id="path1647"
         d="m 28.585977,266.10944 c 0.0089,-0.13046 0.0641,-0.52568 -0.253907,-1.1211 -0.366236,-0.68573 -1.169912,-1.46078 -2.810547,-1.90039 -0.0254,-0.007 -0.05173,-0.0106 -0.07813,-0.01 l -3.4e-5,1.7e-4 c -0.08437,0.003 -0.162012,0.047 -0.208984,0.11719 -0.200152,0.29636 -0.314457,0.58441 -0.310547,0.88086 0.0039,0.29646 0.123424,0.57336 0.308594,0.85547 0.05336,0.0802 0.146141,0.12515 0.242187,0.11719 0.588668,-0.0467 1.297423,-0.0718 1.910157,0.23633 6.63e-4,6.7e-4 0.0013,10e-4 0.002,0.002 0.502363,0.24822 0.679372,0.55199 0.71289,0.97851 z"
         style="color:#000000;font-style:normal;font-variant:normal;font-weight:normal;font-stretch:normal;font-size:medium;line-height:normal;font-family:sans-serif;font-variant-ligatures:normal;font-variant-position:normal;font-variant-caps:normal;font-variant-numeric:normal;font-variant-alternates:normal;font-feature-settings:normal;text-indent:0;text-align:start;text-decoration:none;text-decoration-line:none;text-decoration-style:solid;text-decoration-color:#000000;letter-spacing:normal;word-spacing:normal;text-transform:none;writing-mode:lr-tb;direction:ltr;text-orientation:mixed;dominant-baseline:auto;baseline-shift:baseline;text-anchor:start;white-space:normal;shape-padding:0;clip-rule:nonzero;display:inline;overflow:visible;visibility:visible;opacity:1;isolation:auto;mix-blend-mode:normal;color-interpolation:sRGB;color-interpolation-filters:linearRGB;solid-color:#000000;solid-opacity:1;vector-effect:none;fill:#ffd180;fill-opacity:1;fill-rule:nonzero;stroke:none;stroke-width:0.4295975;stroke-linecap:round;stroke-linejoin:round;stroke-miterlimit:4;stroke-dasharray:none;stroke-dashoffset:0;stroke-opacity:1;paint-order:markers fill stroke;color-rendering:auto;image-rendering:auto;shape-rendering:auto;text-rendering:auto;enable-background:accumulate" />
      <path
         inkscape:export-ydpi="700.72992"
         inkscape:export-xdpi="700.72992"
         sodipodi:nodetypes="cccccccccccc"
         inkscape:connector-curvature="0"
         id="path1651"
         d="m 28.627002,266.23852 c -0.01714,-0.2987 0.198916,-0.74729 0.910156,-1.03125 0.603537,-0.19137 1.097519,-0.22267 1.708985,-0.1582 0.09806,0.0102 0.193651,-0.035 0.248047,-0.11719 0.185169,-0.28211 0.304683,-0.55901 0.308593,-0.85547 0.0039,-0.29645 -0.110394,-0.5845 -0.310546,-0.88086 -0.05009,-0.0747 -0.13469,-0.11884 -0.22461,-0.11719 l -4.9e-5,-2.4e-4 c -0.02116,8.2e-4 -0.04214,0.004 -0.0625,0.01 -1.640837,0.43966 -2.444445,1.21659 -2.810547,1.9043 -0.345071,0.6482 -0.281666,1.15665 -0.27539,1.2207 z"
         style="color:#000000;font-style:normal;font-variant:normal;font-weight:normal;font-stretch:normal;font-size:medium;line-height:normal;font-family:sans-serif;font-variant-ligatures:normal;font-variant-position:normal;font-variant-caps:normal;font-variant-numeric:normal;font-variant-alternates:normal;font-feature-settings:normal;text-indent:0;text-align:start;text-decoration:none;text-decoration-line:none;text-decoration-style:solid;text-decoration-color:#000000;letter-spacing:normal;word-spacing:normal;text-transform:none;writing-mode:lr-tb;direction:ltr;text-orientation:mixed;dominant-baseline:auto;baseline-shift:baseline;text-anchor:start;white-space:normal;shape-padding:0;clip-rule:nonzero;display:inline;overflow:visible;visibility:visible;opacity:1;isolation:auto;mix-blend-mode:normal;color-interpolation:sRGB;color-interpolation-filters:linearRGB;solid-color:#000000;solid-opacity:1;vector-effect:none;fill:#ffd180;fill-opacity:1;fill-rule:nonzero;stroke:none;stroke-width:0.4295975;stroke-linecap:round;stroke-linejoin:round;stroke-miterlimit:4;stroke-dasharray:none;stroke-dashoffset:0;stroke-opacity:1;paint-order:markers fill stroke;color-rendering:auto;image-rendering:auto;shape-rendering:auto;text-rendering:auto;enable-background:accumulate" />
      <path
         inkscape:export-ydpi="700.72992"
         inkscape:export-xdpi="700.72992"
         sodipodi:nodetypes="ccsccccccccc"
         inkscape:connector-curvature="0"
         id="path1735"
         transform="matrix(0.26458333,0,0,0.26458333,0,284.3)"
         d="m 119.86914,-78.173828 c -0.0115,0.0025 -0.0237,0.0011 -0.0352,0.0039 -7.34258,1.661707 -10.9379,4.020088 -12.57617,6.619307 -0.5186,0.822791 -0.82068,2.154267 -1.00586,2.814287 0.008,0.169205 0.0207,0.329272 0.0254,0.376953 l 1.91993,0.0957 c -0.0648,-1.128945 0.7513,-2.825203 3.43945,-3.898437 2.28108,-0.723289 4.14793,-0.841323 6.45898,-0.597657 0.37062,0.03855 0.73191,-0.13272 0.9375,-0.443359 0.69985,-1.066243 1.15124,-2.111943 1.16602,-3.232422 0.008,-0.585268 -0.11142,-1.161336 -0.33008,-1.738281 z"
         style="color:#000000;font-style:normal;font-variant:normal;font-weight:normal;font-stretch:normal;font-size:medium;line-height:normal;font-family:sans-serif;font-variant-ligatures:normal;font-variant-position:normal;font-variant-caps:normal;font-variant-numeric:normal;font-variant-alternates:normal;font-feature-settings:normal;text-indent:0;text-align:start;text-decoration:none;text-decoration-line:none;text-decoration-style:solid;text-decoration-color:#000000;letter-spacing:normal;word-spacing:normal;text-transform:none;writing-mode:lr-tb;direction:ltr;text-orientation:mixed;dominant-baseline:auto;baseline-shift:baseline;text-anchor:start;white-space:normal;shape-padding:0;clip-rule:nonzero;display:inline;overflow:visible;visibility:visible;opacity:1;isolation:auto;mix-blend-mode:normal;color-interpolation:sRGB;color-interpolation-filters:linearRGB;solid-color:#000000;solid-opacity:1;vector-effect:none;fill:#f8a364;fill-opacity:1;fill-rule:nonzero;stroke:none;stroke-width:1.62367547;stroke-linecap:round;stroke-linejoin:round;stroke-miterlimit:4;stroke-dasharray:none;stroke-dashoffset:0;stroke-opacity:1;paint-order:markers fill stroke;color-rendering:auto;image-rendering:auto;shape-rendering:auto;text-rendering:auto;enable-background:accumulate" />
      <path
         inkscape:export-ydpi="700.72992"
         inkscape:export-xdpi="700.72992"
         inkscape:connector-curvature="0"
         id="path948"
         transform="matrix(0.26458333,0,0,0.26458333,0,284.3)"
         d="m 101.03906,-42.207031 a 1.0001006,1.0001006 0 0 0 -0.83789,0.996093 v 5.00586 h 2.00195 v -5.00586 a 1.0001006,1.0001006 0 0 0 -0.83593,-0.996093 z m 4.33399,0 a 1.0001006,1.0001006 0 0 0 -0.83789,0.996093 v 5.00586 h 2 v -5.00586 a 1.0001006,1.0001006 0 0 0 -0.83594,-0.996093 z m 4.33203,0 a 1.0001006,1.0001006 0 0 0 -0.83789,0.996093 v 5.00586 h 2.00195 v -5.00586 a 1.0001006,1.0001006 0 0 0 -0.83789,-0.996093 z m 4.33398,0 a 1.0001006,1.0001006 0 0 0 -0.83789,0.996093 v 5.00586 h 2 v -5.00586 a 1.0001006,1.0001006 0 0 0 -0.83789,-0.996093 z"
         style="color:#000000;font-style:normal;font-variant:normal;font-weight:normal;font-stretch:normal;font-size:medium;line-height:normal;font-family:sans-serif;font-variant-ligatures:normal;font-variant-position:normal;font-variant-caps:normal;font-variant-numeric:normal;font-variant-alternates:normal;font-feature-settings:normal;text-indent:0;text-align:start;text-decoration:none;text-decoration-line:none;text-decoration-style:solid;text-decoration-color:#000000;letter-spacing:normal;word-spacing:normal;text-transform:none;writing-mode:lr-tb;direction:ltr;text-orientation:mixed;dominant-baseline:auto;baseline-shift:baseline;text-anchor:start;white-space:normal;shape-padding:0;clip-rule:nonzero;display:inline;overflow:visible;visibility:visible;opacity:1;isolation:auto;mix-blend-mode:normal;color-interpolation:sRGB;color-interpolation-filters:linearRGB;solid-color:#000000;solid-opacity:1;vector-effect:none;fill:#cccccc;fill-opacity:1;fill-rule:nonzero;stroke:none;stroke-width:1.62367547;stroke-linecap:round;stroke-linejoin:round;stroke-miterlimit:4;stroke-dasharray:none;stroke-dashoffset:0;stroke-opacity:1;paint-order:markers fill stroke;color-rendering:auto;image-rendering:auto;shape-rendering:auto;text-rendering:auto;enable-background:accumulate" />
      <path
         inkscape:export-ydpi="700.72992"
         inkscape:export-xdpi="700.72992"
         sodipodi:nodetypes="cccccccccc"
         inkscape:connector-curvature="0"
         id="path1728"
         transform="matrix(0.26458333,0,0,0.26458333,0,284.3)"
         d="m 128.37891,-48.792969 c -0.0319,-8.61e-4 -0.0639,-1.94e-4 -0.0957,0.002 -0.0275,0.0041 -0.0549,0.0093 -0.082,0.01563 l -4.94531,0.804688 c -0.57633,0.09284 -0.95098,0.657508 -0.8125,1.224609 l 0.6608,2.669378 6.65845,-1.135388 -0.41691,-2.729302 c -0.0722,-0.481268 -0.48026,-0.840733 -0.96679,-0.851563 z"
         style="fill:#515151;fill-opacity:1;stroke:none;stroke-width:1.62367451;stroke-linecap:round;stroke-linejoin:round;stroke-miterlimit:1.5;stroke-opacity:1;paint-order:markers fill stroke" />
      <path
         inkscape:export-ydpi="700.72992"
         inkscape:export-xdpi="700.72992"
         style="color:#000000;font-style:normal;font-variant:normal;font-weight:normal;font-stretch:normal;font-size:medium;line-height:normal;font-family:sans-serif;font-variant-ligatures:normal;font-variant-position:normal;font-variant-caps:normal;font-variant-numeric:normal;font-variant-alternates:normal;font-feature-settings:normal;text-indent:0;text-align:start;text-decoration:none;text-decoration-line:none;text-decoration-style:solid;text-decoration-color:#000000;letter-spacing:normal;word-spacing:normal;text-transform:none;writing-mode:lr-tb;direction:ltr;text-orientation:mixed;dominant-baseline:auto;baseline-shift:baseline;text-anchor:start;white-space:normal;shape-padding:0;clip-rule:nonzero;display:inline;overflow:visible;visibility:visible;opacity:1;isolation:auto;mix-blend-mode:normal;color-interpolation:sRGB;color-interpolation-filters:linearRGB;solid-color:#000000;solid-opacity:1;vector-effect:none;fill:#f8a364;fill-opacity:1;fill-rule:nonzero;stroke:none;stroke-width:0.4295975;stroke-linecap:round;stroke-linejoin:round;stroke-miterlimit:4;stroke-dasharray:none;stroke-dashoffset:0;stroke-opacity:1;paint-order:markers fill stroke;color-rendering:auto;image-rendering:auto;shape-rendering:auto;text-rendering:auto;enable-background:accumulate"
         d="m 25.004635,263.61651 c 0.003,6.6e-4 0.0063,2.9e-4 0.0093,10e-4 1.942724,0.43966 2.893986,1.06365 3.327445,1.75136 0.137213,0.2177 0.217138,0.56998 0.266134,0.74461 -0.0021,0.0448 -0.0055,0.0871 -0.0067,0.0997 l -0.507981,0.0253 c 0.01714,-0.2987 -0.198781,-0.7475 -0.910021,-1.03146 -0.603536,-0.19137 -1.097473,-0.2226 -1.708939,-0.15813 -0.09806,0.0102 -0.193651,-0.0351 -0.248046,-0.11731 -0.185169,-0.28211 -0.304599,-0.55878 -0.30851,-0.85524 -0.0021,-0.15486 0.02948,-0.30727 0.08733,-0.45992 z"
         id="path1740"
         inkscape:connector-curvature="0"
         sodipodi:nodetypes="ccsccccccccc" />
      <path
         inkscape:export-ydpi="700.72992"
         inkscape:export-xdpi="700.72992"
         inkscape:connector-curvature="0"
         id="path1771"
         transform="matrix(0.26458333,0,0,0.26458333,0,284.3)"
         d="m 96.201172,-41.210938 v 2.828126 h 23.001948 v -2.828126 z"
         style="fill:#515151;fill-opacity:1;stroke:none;stroke-width:1.62367451;stroke-linecap:round;stroke-linejoin:round;stroke-miterlimit:1.5;stroke-opacity:1;paint-order:markers fill stroke" />
      <path
         inkscape:export-ydpi="700.72992"
         inkscape:export-xdpi="700.72992"
         inkscape:connector-curvature="0"
         id="path1776"
         transform="matrix(0.26458333,0,0,0.26458333,0,284.3)"
         d="m 100.20117,-41.210938 v 2.828126 h 2.00195 v -2.828126 z m 4.33399,0 v 2.828126 h 2 v -2.828126 z m 4.33203,0 v 2.828126 h 2.00195 v -2.828126 z m 4.33398,0 v 2.828126 h 2 v -2.828126 z"
         style="fill:#9c9c9c;fill-opacity:1;stroke:none;stroke-width:1.62367451;stroke-linecap:round;stroke-linejoin:round;stroke-miterlimit:1.5;stroke-opacity:1;paint-order:markers fill stroke" />
      <path
         inkscape:export-ydpi="700.72992"
         inkscape:export-xdpi="700.72992"
         inkscape:connector-curvature="0"
         id="path1629"
         d="m 25.449219,264.51953 c -0.863184,0.091 -1.479251,0.59654 -1.871094,1.16797 -0.390083,0.56886 -0.5776,1.20236 -0.636719,1.65234 v 0.004 c -1.44e-4,10e-4 -0.0018,0.003 -0.002,0.004 l -0.658203,4.23242 a 0.26460996,0.26460996 0 0 0 0.220703,0.30273 l 1.810547,0.28321 a 0.26460996,0.26460996 0 0 0 0.287109,-0.16407 l 0.185547,-0.4707 -0.125,1.3125 c -0.04406,0.4626 0.357008,0.81836 0.792969,0.81836 h 5.820313 c 0.43596,0 0.837022,-0.35576 0.792968,-0.81836 l -0.125,-1.31641 0.1875,0.47461 a 0.26460996,0.26460996 0 0 0 0.285156,0.16407 l 1.810547,-0.28321 a 0.26460996,0.26460996 0 0 0 0.220703,-0.30273 l -0.658203,-4.23242 -0.002,-0.004 c -0.05871,-0.45015 -0.245833,-1.08622 -0.636718,-1.65625 -0.391844,-0.57143 -1.00791,-1.07699 -1.871094,-1.16797 -0.723882,-0.0741 -1.463927,-0.016 -2.064453,0.24219 -0.372612,0.16022 -0.648272,0.44479 -0.84961,0.78516 -0.201338,-0.34037 -0.476997,-0.62494 -0.849609,-0.78516 -0.600527,-0.25822 -1.340572,-0.31634 -2.064453,-0.24219 z"
         style="color:#000000;font-style:normal;font-variant:normal;font-weight:normal;font-stretch:normal;font-size:medium;line-height:normal;font-family:sans-serif;font-variant-ligatures:normal;font-variant-position:normal;font-variant-caps:normal;font-variant-numeric:normal;font-variant-alternates:normal;font-feature-settings:normal;text-indent:0;text-align:start;text-decoration:none;text-decoration-line:none;text-decoration-style:solid;text-decoration-color:#000000;letter-spacing:normal;word-spacing:normal;text-transform:none;writing-mode:lr-tb;direction:ltr;text-orientation:mixed;dominant-baseline:auto;baseline-shift:baseline;text-anchor:start;white-space:normal;shape-padding:0;clip-rule:nonzero;display:inline;overflow:visible;visibility:visible;opacity:1;isolation:auto;mix-blend-mode:normal;color-interpolation:sRGB;color-interpolation-filters:linearRGB;solid-color:#000000;solid-opacity:1;vector-effect:none;fill:#ffd180;fill-opacity:1;fill-rule:nonzero;stroke:none;stroke-width:0.4295975;stroke-linecap:round;stroke-linejoin:round;stroke-miterlimit:4;stroke-dasharray:none;stroke-dashoffset:0;stroke-opacity:1;paint-order:markers fill stroke;color-rendering:auto;image-rendering:auto;shape-rendering:auto;text-rendering:auto;enable-background:accumulate" />
      <path
         inkscape:export-ydpi="700.72992"
         inkscape:export-xdpi="700.72992"
         inkscape:connector-curvature="0"
         id="path1633"
         transform="matrix(0.26458333,0,0,0.26458333,0,284.3)"
         d="m 118.19141,-65.222656 a 1.0001006,1.0001006 0 0 0 -0.98829,1.113281 l 2.25,23.630859 c 1.07728,-0.476244 1.8644,-1.537075 1.74219,-2.820312 l -0.43554,-4.580078 -0.0371,-0.394532 -1.52735,-16.027343 a 1.0001006,1.0001006 0 0 0 -1.0039,-0.921875 z"
         style="color:#000000;font-style:normal;font-variant:normal;font-weight:normal;font-stretch:normal;font-size:medium;line-height:normal;font-family:sans-serif;font-variant-ligatures:normal;font-variant-position:normal;font-variant-caps:normal;font-variant-numeric:normal;font-variant-alternates:normal;font-feature-settings:normal;text-indent:0;text-align:start;text-decoration:none;text-decoration-line:none;text-decoration-style:solid;text-decoration-color:#000000;letter-spacing:normal;word-spacing:normal;text-transform:none;writing-mode:lr-tb;direction:ltr;text-orientation:mixed;dominant-baseline:auto;baseline-shift:baseline;text-anchor:start;white-space:normal;shape-padding:0;clip-rule:nonzero;display:inline;overflow:visible;visibility:visible;opacity:1;isolation:auto;mix-blend-mode:normal;color-interpolation:sRGB;color-interpolation-filters:linearRGB;solid-color:#000000;solid-opacity:1;vector-effect:none;fill:#f8a364;fill-opacity:1;fill-rule:nonzero;stroke:none;stroke-width:1.62367547;stroke-linecap:round;stroke-linejoin:round;stroke-miterlimit:4;stroke-dasharray:none;stroke-dashoffset:0;stroke-opacity:1;paint-order:markers fill stroke;color-rendering:auto;image-rendering:auto;shape-rendering:auto;text-rendering:auto;enable-background:accumulate" />
      <path
         inkscape:export-ydpi="700.72992"
         inkscape:export-xdpi="700.72992"
         inkscape:connector-curvature="0"
         id="rect910"
         transform="matrix(0.26458333,0,0,0.26458333,0,284.3)"
         d="m 96.177734,-65.222656 a 1.0001006,1.0001006 0 0 0 -0.972656,0.921875 l -1.529297,16.041015 -0.472656,4.960938 c -0.122221,1.283237 0.664902,2.344068 1.742187,2.820312 l 2.251954,-23.630859 a 1.0001006,1.0001006 0 0 0 -1.019532,-1.113281 z"
         style="color:#000000;font-style:normal;font-variant:normal;font-weight:normal;font-stretch:normal;font-size:medium;line-height:normal;font-family:sans-serif;font-variant-ligatures:normal;font-variant-position:normal;font-variant-caps:normal;font-variant-numeric:normal;font-variant-alternates:normal;font-feature-settings:normal;text-indent:0;text-align:start;text-decoration:none;text-decoration-line:none;text-decoration-style:solid;text-decoration-color:#000000;letter-spacing:normal;word-spacing:normal;text-transform:none;writing-mode:lr-tb;direction:ltr;text-orientation:mixed;dominant-baseline:auto;baseline-shift:baseline;text-anchor:start;white-space:normal;shape-padding:0;clip-rule:nonzero;display:inline;overflow:visible;visibility:visible;opacity:1;isolation:auto;mix-blend-mode:normal;color-interpolation:sRGB;color-interpolation-filters:linearRGB;solid-color:#000000;solid-opacity:1;vector-effect:none;fill:#f8a364;fill-opacity:1;fill-rule:nonzero;stroke:none;stroke-width:1.62367547;stroke-linecap:round;stroke-linejoin:round;stroke-miterlimit:4;stroke-dasharray:none;stroke-dashoffset:0;stroke-opacity:1;paint-order:markers fill stroke;color-rendering:auto;image-rendering:auto;shape-rendering:auto;text-rendering:auto;enable-background:accumulate" />
      <path
         inkscape:export-ydpi="700.72992"
         inkscape:export-xdpi="700.72992"
         inkscape:connector-curvature="0"
         id="path1710"
         d="m 26.513672,269.68945 a 0.26460996,0.26460996 0 0 0 -0.08008,0.0137 0.26460996,0.26460996 0 0 0 -0.02344,0.008 0.26460996,0.26460996 0 0 0 -0.002,0.002 0.26460996,0.26460996 0 0 0 -0.04492,0.0215 0.26460996,0.26460996 0 0 0 -0.002,0.002 0.26460996,0.26460996 0 0 0 -0.01953,0.0156 0.26460996,0.26460996 0 0 0 -0.002,0.002 0.26460996,0.26460996 0 0 0 -0.03516,0.0351 0.26460996,0.26460996 0 0 0 -0.002,0.002 0.26460996,0.26460996 0 0 0 -0.01367,0.0195 0.26460996,0.26460996 0 0 0 -0.002,0.002 0.26460996,0.26460996 0 0 0 -0.04492,0.13672 l -0.517579,2.33203 a 0.26460996,0.26460996 0 0 0 0.257813,0.32227 h 4.761719 a 0.26460996,0.26460996 0 0 0 0.257812,-0.32227 l -0.527344,-2.38086 a 0.26460996,0.26460996 0 0 0 -0.259765,-0.20703 h -3.66211 a 0.26460996,0.26460996 0 0 0 -0.03906,-0.004 z"
         style="color:#000000;font-style:normal;font-variant:normal;font-weight:normal;font-stretch:normal;font-size:medium;line-height:normal;font-family:sans-serif;font-variant-ligatures:normal;font-variant-position:normal;font-variant-caps:normal;font-variant-numeric:normal;font-variant-alternates:normal;font-feature-settings:normal;text-indent:0;text-align:start;text-decoration:none;text-decoration-line:none;text-decoration-style:solid;text-decoration-color:#000000;letter-spacing:normal;word-spacing:normal;text-transform:none;writing-mode:lr-tb;direction:ltr;text-orientation:mixed;dominant-baseline:auto;baseline-shift:baseline;text-anchor:start;white-space:normal;shape-padding:0;clip-rule:nonzero;display:inline;overflow:visible;visibility:visible;opacity:1;isolation:auto;mix-blend-mode:normal;color-interpolation:sRGB;color-interpolation-filters:linearRGB;solid-color:#000000;solid-opacity:1;vector-effect:none;fill:#717171;fill-opacity:1;fill-rule:nonzero;stroke:none;stroke-width:0.4295975;stroke-linecap:round;stroke-linejoin:round;stroke-miterlimit:4;stroke-dasharray:none;stroke-dashoffset:0;stroke-opacity:1;paint-order:markers fill stroke;color-rendering:auto;image-rendering:auto;shape-rendering:auto;text-rendering:auto;enable-background:accumulate" />
      <path
         inkscape:export-ydpi="700.72992"
         inkscape:export-xdpi="700.72992"
         inkscape:connector-curvature="0"
         id="path1753"
         d="m 28.804688,267.03516 c -0.145499,-0.0135 -0.28885,0.0774 -0.431641,0.15429 -0.12183,-0.0692 -0.240655,-0.15007 -0.382813,-0.15039 a 0.26460996,0.26460996 0 0 0 -0.002,0 c -0.355747,1.5e-4 -0.642614,0.22564 -0.757812,0.50977 -0.115198,0.28413 -0.0677,0.64668 0.1875,0.89453 l 0.757812,0.75976 a 0.26460996,0.26460996 0 0 0 0.375,0 l 0.759766,-0.75976 0.002,-0.002 c 0.175075,-0.1728 0.25998,-0.39691 0.251953,-0.60547 -0.0081,-0.20938 -0.09811,-0.3973 -0.232422,-0.53906 -0.134316,-0.14177 -0.318708,-0.24239 -0.527343,-0.26172 z"
         style="color:#000000;font-style:normal;font-variant:normal;font-weight:normal;font-stretch:normal;font-size:medium;line-height:normal;font-family:sans-serif;font-variant-ligatures:normal;font-variant-position:normal;font-variant-caps:normal;font-variant-numeric:normal;font-variant-alternates:normal;font-feature-settings:normal;text-indent:0;text-align:start;text-decoration:none;text-decoration-line:none;text-decoration-style:solid;text-decoration-color:#000000;letter-spacing:normal;word-spacing:normal;text-transform:none;writing-mode:lr-tb;direction:ltr;text-orientation:mixed;dominant-baseline:auto;baseline-shift:baseline;text-anchor:start;white-space:normal;shape-padding:0;clip-rule:nonzero;display:inline;overflow:visible;visibility:visible;opacity:1;isolation:auto;mix-blend-mode:normal;color-interpolation:sRGB;color-interpolation-filters:linearRGB;solid-color:#000000;solid-opacity:1;vector-effect:none;fill:#f73e7e;fill-opacity:1;fill-rule:nonzero;stroke:none;stroke-width:0.4295975;stroke-linecap:round;stroke-linejoin:round;stroke-miterlimit:4;stroke-dasharray:none;stroke-dashoffset:0;stroke-opacity:1;paint-order:markers fill stroke;color-rendering:auto;image-rendering:auto;shape-rendering:auto;text-rendering:auto;enable-background:accumulate" />
      <path
         inkscape:export-ydpi="700.72992"
         inkscape:export-xdpi="700.72992"
         sodipodi:nodetypes="cssccsscc"
         inkscape:connector-curvature="0"
         id="path1781"
         d="m 32.040006,272.56881 c -0.09155,0.33147 -0.415256,0.56431 -0.766361,0.56431 h -5.820317 c -0.350933,0 -0.67514,-0.23258 -0.766879,-0.56379 l -0.02635,0.2744 c -0.04406,0.4626 0.357274,0.81856 0.793234,0.81856 h 5.820317 c 0.435959,0 0.836771,-0.35596 0.792716,-0.81856 z"
         style="color:#000000;font-style:normal;font-variant:normal;font-weight:normal;font-stretch:normal;font-size:medium;line-height:normal;font-family:sans-serif;font-variant-ligatures:normal;font-variant-position:normal;font-variant-caps:normal;font-variant-numeric:normal;font-variant-alternates:normal;font-feature-settings:normal;text-indent:0;text-align:start;text-decoration:none;text-decoration-line:none;text-decoration-style:solid;text-decoration-color:#000000;letter-spacing:normal;word-spacing:normal;text-transform:none;writing-mode:lr-tb;direction:ltr;text-orientation:mixed;dominant-baseline:auto;baseline-shift:baseline;text-anchor:start;white-space:normal;shape-padding:0;clip-rule:nonzero;display:inline;overflow:visible;visibility:visible;opacity:1;isolation:auto;mix-blend-mode:normal;color-interpolation:sRGB;color-interpolation-filters:linearRGB;solid-color:#000000;solid-opacity:1;vector-effect:none;fill:#f8a364;fill-opacity:1;fill-rule:nonzero;stroke:none;stroke-width:0.4295975;stroke-linecap:round;stroke-linejoin:round;stroke-miterlimit:4;stroke-dasharray:none;stroke-dashoffset:0;stroke-opacity:1;paint-order:markers fill stroke;color-rendering:auto;image-rendering:auto;shape-rendering:auto;text-rendering:auto;enable-background:accumulate" />
      <path
         inkscape:export-ydpi="700.72992"
         inkscape:export-xdpi="700.72992"
         sodipodi:nodetypes="ccccc"
         inkscape:connector-curvature="0"
         id="path1702"
         transform="matrix(0.26458333,0,0,0.26458333,0,284.3)"
         d="m 98.835938,-52.681641 -1.609376,7.257813 c -0.139921,0.624512 0.334616,1.21792 0.97461,1.21875 h 5.906248 c 0.44082,-3.575739 -1.47314,-8.476535 -5.271482,-8.476563 z"
         style="color:#000000;font-style:normal;font-variant:normal;font-weight:normal;font-stretch:normal;font-size:medium;line-height:normal;font-family:sans-serif;font-variant-ligatures:normal;font-variant-position:normal;font-variant-caps:normal;font-variant-numeric:normal;font-variant-alternates:normal;font-feature-settings:normal;text-indent:0;text-align:start;text-decoration:none;text-decoration-line:none;text-decoration-style:solid;text-decoration-color:#000000;letter-spacing:normal;word-spacing:normal;text-transform:none;writing-mode:lr-tb;direction:ltr;text-orientation:mixed;dominant-baseline:auto;baseline-shift:baseline;text-anchor:start;white-space:normal;shape-padding:0;clip-rule:nonzero;display:inline;overflow:visible;visibility:visible;opacity:1;isolation:auto;mix-blend-mode:normal;color-interpolation:sRGB;color-interpolation-filters:linearRGB;solid-color:#000000;solid-opacity:1;vector-effect:none;fill:#cccccc;fill-opacity:1;fill-rule:nonzero;stroke:none;stroke-width:1.62367427;stroke-linecap:round;stroke-linejoin:round;stroke-miterlimit:4;stroke-dasharray:none;stroke-dashoffset:0;stroke-opacity:1;paint-order:markers fill stroke;color-rendering:auto;image-rendering:auto;shape-rendering:auto;text-rendering:auto;enable-background:accumulate" />
      <path
         inkscape:export-ydpi="700.72992"
         inkscape:export-xdpi="700.72992"
         inkscape:connector-curvature="0"
         id="rect956"
         d="m 27.109375,265.58008 a 0.26460996,0.26460996 0 0 0 -0.181641,0.0801 c -0.286905,0.28689 -0.46289,0.68559 -0.46289,1.12304 a 0.2646485,0.2646485 0 1 0 0.529297,0 c 0,-0.29545 0.117267,-0.55867 0.308593,-0.75 a 0.26460996,0.26460996 0 0 0 -0.193359,-0.45312 z m 2.472656,0 a 0.26460996,0.26460996 0 0 0 -0.158203,0.45312 c 0.191327,0.19133 0.310547,0.45455 0.310547,0.75 a 0.26460996,0.26460996 0 1 0 0.527344,0 c 0,-0.43745 -0.175986,-0.83615 -0.462891,-1.12304 a 0.26460996,0.26460996 0 0 0 -0.216797,-0.0801 z"
         style="color:#000000;font-style:normal;font-variant:normal;font-weight:normal;font-stretch:normal;font-size:medium;line-height:normal;font-family:sans-serif;font-variant-ligatures:normal;font-variant-position:normal;font-variant-caps:normal;font-variant-numeric:normal;font-variant-alternates:normal;font-feature-settings:normal;text-indent:0;text-align:start;text-decoration:none;text-decoration-line:none;text-decoration-style:solid;text-decoration-color:#000000;letter-spacing:normal;word-spacing:normal;text-transform:none;writing-mode:lr-tb;direction:ltr;text-orientation:mixed;dominant-baseline:auto;baseline-shift:baseline;text-anchor:start;white-space:normal;shape-padding:0;clip-rule:nonzero;display:inline;overflow:visible;visibility:visible;opacity:1;isolation:auto;mix-blend-mode:normal;color-interpolation:sRGB;color-interpolation-filters:linearRGB;solid-color:#000000;solid-opacity:1;vector-effect:none;fill:#717171;fill-opacity:1;fill-rule:nonzero;stroke:none;stroke-width:0.4295975;stroke-linecap:round;stroke-linejoin:round;stroke-miterlimit:4;stroke-dasharray:none;stroke-dashoffset:0;stroke-opacity:1;paint-order:markers fill stroke;color-rendering:auto;image-rendering:auto;shape-rendering:auto;text-rendering:auto;enable-background:accumulate" />
      <path
         inkscape:export-ydpi="700.72992"
         inkscape:export-xdpi="700.72992"
         sodipodi:nodetypes="cccccccccccccccccccccc"
         inkscape:connector-curvature="0"
         id="path1761"
         d="m 26.513625,269.68952 c -0.02723,3.2e-4 -0.05425,0.005 -0.0801,0.0134 -0.0079,0.002 -0.01564,0.005 -0.02326,0.008 -7.93e-4,6.8e-4 -0.0013,0.001 -0.0021,0.002 -0.01561,0.006 -0.03067,0.0127 -0.04496,0.0212 -7.94e-4,6.9e-4 -0.0013,10e-4 -0.0021,0.002 -0.0068,0.005 -0.01334,0.01 -0.01963,0.0155 -7.93e-4,6.9e-4 -0.0013,10e-4 -0.0021,0.002 -0.01278,0.0106 -0.02455,0.0223 -0.03514,0.0351 -5.29e-4,6.9e-4 -0.0011,10e-4 -0.0016,0.002 -0.0049,0.006 -0.0096,0.0129 -0.01394,0.0196 -7.93e-4,6.9e-4 -0.0013,0.001 -0.0021,0.002 -0.02728,0.0405 -0.04284,0.0877 -0.04496,0.13643 l -0.06046,0.27337 c 3.356996,0.0274 3.664305,0.21324 4.245221,2.38125 h 0.317294 c 0.16933,-2.2e-4 0.294886,-0.15723 0.257865,-0.32246 l -0.5271,-2.38074 c -0.02703,-0.12167 -0.135297,-0.20798 -0.259932,-0.20722 h -3.662309 c -0.01281,-0.002 -0.02574,-0.004 -0.03876,-0.004 z"
         style="color:#000000;font-style:normal;font-variant:normal;font-weight:normal;font-stretch:normal;font-size:medium;line-height:normal;font-family:sans-serif;font-variant-ligatures:normal;font-variant-position:normal;font-variant-caps:normal;font-variant-numeric:normal;font-variant-alternates:normal;font-feature-settings:normal;text-indent:0;text-align:start;text-decoration:none;text-decoration-line:none;text-decoration-style:solid;text-decoration-color:#000000;letter-spacing:normal;word-spacing:normal;text-transform:none;writing-mode:lr-tb;direction:ltr;text-orientation:mixed;dominant-baseline:auto;baseline-shift:baseline;text-anchor:start;white-space:normal;shape-padding:0;clip-rule:nonzero;display:inline;overflow:visible;visibility:visible;opacity:1;isolation:auto;mix-blend-mode:normal;color-interpolation:sRGB;color-interpolation-filters:linearRGB;solid-color:#000000;solid-opacity:1;vector-effect:none;fill:#515151;fill-opacity:1;fill-rule:nonzero;stroke:none;stroke-width:0.4295975;stroke-linecap:round;stroke-linejoin:round;stroke-miterlimit:4;stroke-dasharray:none;stroke-dashoffset:0;stroke-opacity:1;paint-order:markers fill stroke;color-rendering:auto;image-rendering:auto;shape-rendering:auto;text-rendering:auto;enable-background:accumulate" />
      <path
         inkscape:export-ydpi="700.72992"
         inkscape:export-xdpi="700.72992"
         style="color:#000000;font-style:normal;font-variant:normal;font-weight:normal;font-stretch:normal;font-size:medium;line-height:normal;font-family:sans-serif;font-variant-ligatures:normal;font-variant-position:normal;font-variant-caps:normal;font-variant-numeric:normal;font-variant-alternates:normal;font-feature-settings:normal;text-indent:0;text-align:start;text-decoration:none;text-decoration-line:none;text-decoration-style:solid;text-decoration-color:#000000;letter-spacing:normal;word-spacing:normal;text-transform:none;writing-mode:lr-tb;direction:ltr;text-orientation:mixed;dominant-baseline:auto;baseline-shift:baseline;text-anchor:start;white-space:normal;shape-padding:0;clip-rule:nonzero;display:inline;overflow:visible;visibility:visible;opacity:1;isolation:auto;mix-blend-mode:normal;color-interpolation:sRGB;color-interpolation-filters:linearRGB;solid-color:#000000;solid-opacity:1;vector-effect:none;fill:#cccccc;fill-opacity:1;fill-rule:nonzero;stroke:none;stroke-width:0.42959717;stroke-linecap:round;stroke-linejoin:round;stroke-miterlimit:4;stroke-dasharray:none;stroke-dashoffset:0;stroke-opacity:1;paint-order:markers fill stroke;color-rendering:auto;image-rendering:auto;shape-rendering:auto;text-rendering:auto;enable-background:accumulate"
         d="m 30.576388,270.36132 0.425814,1.92029 c 0.03702,0.16524 -0.08853,0.32224 -0.257866,0.32246 h -1.562694 c -0.116634,-0.94608 0.389768,-2.24275 1.394746,-2.24275 z"
         id="path1715"
         inkscape:connector-curvature="0"
         sodipodi:nodetypes="ccccc" />
      <path
         inkscape:export-ydpi="700.72992"
         inkscape:export-xdpi="700.72992"
         sodipodi:nodetypes="cccscccccsccccc"
         inkscape:connector-curvature="0"
         id="path1717"
         d="m 34.445368,271.58036 -0.658358,-4.2323 -0.0021,-0.004 c -0.05871,-0.45015 -0.245769,-1.0862 -0.636654,-1.65623 -0.391845,-0.57143 -1.00802,-1.07691 -1.871205,-1.16789 -0.180969,-0.0185 -0.363077,-0.029 -0.543636,-0.03 v 0 c -0.0973,-5e-4 -0.193808,0.002 -0.289904,0.007 0.101528,0.005 0.203051,0.0124 0.304374,0.0227 0.863184,0.091 1.479359,0.59646 1.871204,1.16789 0.390885,0.57003 0.577943,1.20608 0.636654,1.65623 l 0.0021,0.004 0.700994,4.5768 0.303392,-0.0503 c 0.15187,-0.0587 0.190131,-0.16655 0.183139,-0.29391 z"
         style="color:#000000;font-style:normal;font-variant:normal;font-weight:normal;font-stretch:normal;font-size:medium;line-height:normal;font-family:sans-serif;font-variant-ligatures:normal;font-variant-position:normal;font-variant-caps:normal;font-variant-numeric:normal;font-variant-alternates:normal;font-feature-settings:normal;text-indent:0;text-align:start;text-decoration:none;text-decoration-line:none;text-decoration-style:solid;text-decoration-color:#000000;letter-spacing:normal;word-spacing:normal;text-transform:none;writing-mode:lr-tb;direction:ltr;text-orientation:mixed;dominant-baseline:auto;baseline-shift:baseline;text-anchor:start;white-space:normal;shape-padding:0;clip-rule:nonzero;display:inline;overflow:visible;visibility:visible;opacity:1;isolation:auto;mix-blend-mode:normal;color-interpolation:sRGB;color-interpolation-filters:linearRGB;solid-color:#000000;solid-opacity:1;vector-effect:none;fill:#f8a364;fill-opacity:1;fill-rule:nonzero;stroke:none;stroke-width:0.4295975;stroke-linecap:round;stroke-linejoin:round;stroke-miterlimit:4;stroke-dasharray:none;stroke-dashoffset:0;stroke-opacity:1;paint-order:markers fill stroke;color-rendering:auto;image-rendering:auto;shape-rendering:auto;text-rendering:auto;enable-background:accumulate" />
      <path
         inkscape:export-ydpi="700.72992"
         inkscape:export-xdpi="700.72992"
         sodipodi:nodetypes="cccccccccccccc"
         inkscape:connector-curvature="0"
         id="path1755"
         d="m 28.804812,267.0349 c -0.0913,-0.008 -0.181817,0.0274 -0.27182,0.0718 0.102264,0.0465 0.194429,0.11067 0.269751,0.19017 0.134313,0.14176 0.224446,0.32961 0.232545,0.53899 0.008,0.20856 -0.07711,0.43285 -0.252183,0.60565 l -0.0016,0.002 -0.682646,0.68213 0.077,0.0775 c 0.103386,0.10363 0.271269,0.10363 0.374655,0 l 0.760161,-0.75964 0.0016,-0.002 c 0.175077,-0.1728 0.26021,-0.39709 0.252182,-0.60565 -0.0081,-0.20938 -0.09823,-0.39723 -0.232545,-0.53899 -0.134315,-0.14177 -0.318463,-0.24267 -0.527097,-0.262 z"
         style="color:#000000;font-style:normal;font-variant:normal;font-weight:normal;font-stretch:normal;font-size:medium;line-height:normal;font-family:sans-serif;font-variant-ligatures:normal;font-variant-position:normal;font-variant-caps:normal;font-variant-numeric:normal;font-variant-alternates:normal;font-feature-settings:normal;text-indent:0;text-align:start;text-decoration:none;text-decoration-line:none;text-decoration-style:solid;text-decoration-color:#000000;letter-spacing:normal;word-spacing:normal;text-transform:none;writing-mode:lr-tb;direction:ltr;text-orientation:mixed;dominant-baseline:auto;baseline-shift:baseline;text-anchor:start;white-space:normal;shape-padding:0;clip-rule:nonzero;display:inline;overflow:visible;visibility:visible;opacity:1;isolation:auto;mix-blend-mode:normal;color-interpolation:sRGB;color-interpolation-filters:linearRGB;solid-color:#000000;solid-opacity:1;vector-effect:none;fill:#c31a55;fill-opacity:1;fill-rule:nonzero;stroke:none;stroke-width:0.4295975;stroke-linecap:round;stroke-linejoin:round;stroke-miterlimit:4;stroke-dasharray:none;stroke-dashoffset:0;stroke-opacity:1;paint-order:markers fill stroke;color-rendering:auto;image-rendering:auto;shape-rendering:auto;text-rendering:auto;enable-background:accumulate" />
      <path
         inkscape:export-ydpi="700.72992"
         inkscape:export-xdpi="700.72992"
         inkscape:connector-curvature="0"
         id="path1766"
         transform="matrix(0.26458333,0,0,0.26458333,0,284.3)"
         d="m 115.56445,-52.681641 c -1.45852,0 -2.63552,0.725633 -3.51172,1.81836 1.34519,1.321867 2.06909,3.386129 2.94532,6.65625 h 1.19922 c 0.63998,-8.32e-4 1.11453,-0.594259 0.97461,-1.21875 L 116.1875,-49.875 Z"
         style="color:#000000;font-style:normal;font-variant:normal;font-weight:normal;font-stretch:normal;font-size:medium;line-height:normal;font-family:sans-serif;font-variant-ligatures:normal;font-variant-position:normal;font-variant-caps:normal;font-variant-numeric:normal;font-variant-alternates:normal;font-feature-settings:normal;text-indent:0;text-align:start;text-decoration:none;text-decoration-line:none;text-decoration-style:solid;text-decoration-color:#000000;letter-spacing:normal;word-spacing:normal;text-transform:none;writing-mode:lr-tb;direction:ltr;text-orientation:mixed;dominant-baseline:auto;baseline-shift:baseline;text-anchor:start;white-space:normal;shape-padding:0;clip-rule:nonzero;display:inline;overflow:visible;visibility:visible;opacity:1;isolation:auto;mix-blend-mode:normal;color-interpolation:sRGB;color-interpolation-filters:linearRGB;solid-color:#000000;solid-opacity:1;vector-effect:none;fill:#9c9c9c;fill-opacity:1;fill-rule:nonzero;stroke:none;stroke-width:1.62367427;stroke-linecap:round;stroke-linejoin:round;stroke-miterlimit:4;stroke-dasharray:none;stroke-dashoffset:0;stroke-opacity:1;paint-order:markers fill stroke;color-rendering:auto;image-rendering:auto;shape-rendering:auto;text-rendering:auto;enable-background:accumulate" />
    </g>
  </g>
</svg>
