<svg version="1.1" xmlns="http://www.w3.org/2000/svg" viewBox="-349.2 -1041.7 1213.9 1513.4"><desc>Created with Snap</desc><defs></defs><g><g><g transform="matrix(0.5,0,0,-0.5,0,0)"><path d="M-73 -321L-84 -108Q-36 -116 21 -116Q132 -116 171 -59Q210 -2 210 129L210 1469L482 1469L482 147Q482 21 459 -66Q437 -152 383 -213Q330 -273 241 -301Q153 -329 22 -329Q-33 -329 -73 -321ZM560 -321L549 -108Q597 -116 654 -116Q765 -116 804 -59Q843 -2 843 129L843 1469L1115 1469L1115 147Q1115 21 1092 -66Q1070 -152 1016 -213Q963 -273 874 -301Q786 -329 655 -329Q600 -329 560 -321Z" fill="#00203f" style=""></path></g></g></g></svg>