<svg version="1.1" xmlns="http://www.w3.org/2000/svg" viewBox="-342.01600189208983 -1024.000048828125 1146.8800415039063 1341.4400390625"><desc>Created with Snap</desc><defs></defs><g><rect x="-342.01600189208983" y="-1024.000048828125" width="1146.8800415039063" height="1341.4400390625" fill="#37393a" style=""></rect><g><g transform="matrix(1.024,0,0,-1.024,0,0)"><path d="M112 174L112 700L195 700L195 154Q195 74 159 32Q124 -10 52 -10Q44 -10 32 -9Q20 -8 8 -6Q-4 -4 -16 -1Q-27 2 -34 6L-18 77Q10 64 43 64Q85 64 98 93Q112 123 112 174ZM403 174L403 700L486 700L486 154Q486 74 450 32Q415 -10 343 -10Q335 -10 323 -9Q311 -8 299 -6Q287 -4 275 -1Q264 2 257 6L273 77Q301 64 334 64Q376 64 389 93Q403 123 403 174Z" fill="#ffffff" style=""></path></g></g></g></svg>